<?xml version="1.0" encoding="UTF-8"?>
<svg width="44px" height="37px" viewBox="0 0 44 37" version="1.1" xmlns="http://www.w3.org/2000/svg" xmlns:xlink="http://www.w3.org/1999/xlink">
    <title>twitter</title>
    <g id="页面-1" stroke="none" stroke-width="1" fill="none" fill-rule="evenodd" opacity="0.5">
        <g id="web" transform="translate(-1216.000000, -2782.000000)" fill="#FFFFFF" fill-rule="nonzero">
            <g id="twitter" transform="translate(1216.000000, 2782.000000)">
                <path d="M39.6687962,9.44376448 C39.6687962,24.6719072 29.6656595,35.637545 14.9531424,36.1187955 C8.73126016,36.6000461 4.4687552,34.7094189 0.65312576,31.8562906 C4.91563072,32.3375411 10.6562624,30.9281645 13.4750157,28.0406611 C9.21251072,28.0406611 6.80625792,25.6344083 5.39688128,22.3687795 L9.21251072,22.3687795 C5.39688128,20.9250278 2.50937792,18.0718995 2.50937792,13.328144 C3.437504,13.8093946 4.40000512,14.2562701 6.32500736,14.2562701 C2.99062848,12.3656429 1.10000128,6.17813568 3.47187904,2.36250624 C7.734384,7.10626176 12.9593901,11.4031418 21.5875251,11.8500173 C19.1812723,2.36250624 31.5906618,-2.44999936 36.8156678,3.77188288 C39.2219206,3.29063232 40.6312973,2.36250624 42.4875494,1.36563008 C42.0062989,3.77188288 40.5969222,5.18125952 38.67192,6.1093856 C40.5625472,6.1093856 42.0062989,5.62813504 43.4156755,4.70000896 C42.9688,6.59063616 41.0781728,8.5156384 39.6687962,9.44376448 Z" id="路径"></path>
            </g>
        </g>
    </g>
</svg>