<?xml version="1.0" encoding="UTF-8"?>
<svg width="224px" height="32px" viewBox="0 0 224 32" version="1.1" xmlns="http://www.w3.org/2000/svg" xmlns:xlink="http://www.w3.org/1999/xlink">
    <title>编组 2</title>
    <defs>
        <path d="M18.5555262,31.472544 L35.6907914,11.2346885 C35.9651871,10.9106094 35.994733,10.4440813 35.7634292,10.0877454 L31.5988191,3.6719433 C31.5305008,3.56669534 31.4328641,3.4839217 31.3180486,3.43391393 L23.5555512,0.0529664035 C23.4753345,0.0180280835 23.3888212,0 23.3013757,0 L12.2678194,0 C12.1771508,0 12.0875221,0.0193812278 12.0048987,0.0568537183 L4.56217364,3.43238211 C4.4496422,3.48341892 4.354274,3.56611263 4.28762437,3.67044358 L0.183505495,10.094884 C-0.0421628332,10.4481371 -0.0133854874,10.9074849 0.254592852,11.2295898 L17.0906276,31.4661858 C17.4296091,31.8736352 18.0335312,31.9281544 18.4395254,31.5879579 C18.481397,31.5528723 18.520205,31.5142606 18.5555262,31.472544 Z" id="path-1"></path>
        <path d="M18.5555262,31.472544 L35.6907914,11.2346885 C35.9651871,10.9106094 35.994733,10.4440813 35.7634292,10.0877454 L31.5988191,3.6719433 C31.5305008,3.56669534 31.4328641,3.4839217 31.3180486,3.43391393 L23.5555512,0.0529664035 C23.4753345,0.0180280835 23.3888212,0 23.3013757,0 L12.2678194,0 C12.1771508,0 12.0875221,0.0193812278 12.0048987,0.0568537183 L4.56217364,3.43238211 C4.4496422,3.48341892 4.354274,3.56611263 4.28762437,3.67044358 L0.183505495,10.094884 C-0.0421628332,10.4481371 -0.0133854874,10.9074849 0.254592852,11.2295898 L17.0906276,31.4661858 C17.4296091,31.8736352 18.0335312,31.9281544 18.4395254,31.5879579 C18.481397,31.5528723 18.520205,31.5142606 18.5555262,31.472544 Z" id="path-3"></path>
        <path d="M18.5555262,31.472544 L35.6907914,11.2346885 C35.9651871,10.9106094 35.994733,10.4440813 35.7634292,10.0877454 L31.5988191,3.6719433 C31.5305008,3.56669534 31.4328641,3.4839217 31.3180486,3.43391393 L23.5555512,0.0529664035 C23.4753345,0.0180280835 23.3888212,0 23.3013757,0 L12.2678194,0 C12.1771508,0 12.0875221,0.0193812278 12.0048987,0.0568537183 L4.56217364,3.43238211 C4.4496422,3.48341892 4.354274,3.56611263 4.28762437,3.67044358 L0.183505495,10.094884 C-0.0421628332,10.4481371 -0.0133854874,10.9074849 0.254592852,11.2295898 L17.0906276,31.4661858 C17.4296091,31.8736352 18.0335312,31.9281544 18.4395254,31.5879579 C18.481397,31.5528723 18.520205,31.5142606 18.5555262,31.472544 Z" id="path-5"></path>
        <path d="M18.5555262,31.472544 L35.6907914,11.2346885 C35.9651871,10.9106094 35.994733,10.4440813 35.7634292,10.0877454 L31.5988191,3.6719433 C31.5305008,3.56669534 31.4328641,3.4839217 31.3180486,3.43391393 L23.5555512,0.0529664035 C23.4753345,0.0180280835 23.3888212,0 23.3013757,0 L12.2678194,0 C12.1771508,0 12.0875221,0.0193812278 12.0048987,0.0568537183 L4.56217364,3.43238211 C4.4496422,3.48341892 4.354274,3.56611263 4.28762437,3.67044358 L0.183505495,10.094884 C-0.0421628332,10.4481371 -0.0133854874,10.9074849 0.254592852,11.2295898 L17.0906276,31.4661858 C17.4296091,31.8736352 18.0335312,31.9281544 18.4395254,31.5879579 C18.481397,31.5528723 18.520205,31.5142606 18.5555262,31.472544 Z" id="path-7"></path>
        <path d="M18.5555262,31.472544 L35.6907914,11.2346885 C35.9651871,10.9106094 35.994733,10.4440813 35.7634292,10.0877454 L31.5988191,3.6719433 C31.5305008,3.56669534 31.4328641,3.4839217 31.3180486,3.43391393 L23.5555512,0.0529664035 C23.4753345,0.0180280835 23.3888212,0 23.3013757,0 L12.2678194,0 C12.1771508,0 12.0875221,0.0193812278 12.0048987,0.0568537183 L4.56217364,3.43238211 C4.4496422,3.48341892 4.354274,3.56611263 4.28762437,3.67044358 L0.183505495,10.094884 C-0.0421628332,10.4481371 -0.0133854874,10.9074849 0.254592852,11.2295898 L17.0906276,31.4661858 C17.4296091,31.8736352 18.0335312,31.9281544 18.4395254,31.5879579 C18.481397,31.5528723 18.520205,31.5142606 18.5555262,31.472544 Z" id="path-9"></path>
        <path d="M18.5555262,31.472544 L35.6907914,11.2346885 C35.9651871,10.9106094 35.994733,10.4440813 35.7634292,10.0877454 L31.5988191,3.6719433 C31.5305008,3.56669534 31.4328641,3.4839217 31.3180486,3.43391393 L23.5555512,0.0529664035 C23.4753345,0.0180280835 23.3888212,0 23.3013757,0 L12.2678194,0 C12.1771508,0 12.0875221,0.0193812278 12.0048987,0.0568537183 L4.56217364,3.43238211 C4.4496422,3.48341892 4.354274,3.56611263 4.28762437,3.67044358 L0.183505495,10.094884 C-0.0421628332,10.4481371 -0.0133854874,10.9074849 0.254592852,11.2295898 L17.0906276,31.4661858 C17.4296091,31.8736352 18.0335312,31.9281544 18.4395254,31.5879579 C18.481397,31.5528723 18.520205,31.5142606 18.5555262,31.472544 Z" id="path-11"></path>
        <path d="M18.5555262,31.472544 L35.6907914,11.2346885 C35.9651871,10.9106094 35.994733,10.4440813 35.7634292,10.0877454 L31.5988191,3.6719433 C31.5305008,3.56669534 31.4328641,3.4839217 31.3180486,3.43391393 L23.5555512,0.0529664035 C23.4753345,0.0180280835 23.3888212,0 23.3013757,0 L12.2678194,0 C12.1771508,0 12.0875221,0.0193812278 12.0048987,0.0568537183 L4.56217364,3.43238211 C4.4496422,3.48341892 4.354274,3.56611263 4.28762437,3.67044358 L0.183505495,10.094884 C-0.0421628332,10.4481371 -0.0133854874,10.9074849 0.254592852,11.2295898 L17.0906276,31.4661858 C17.4296091,31.8736352 18.0335312,31.9281544 18.4395254,31.5879579 C18.481397,31.5528723 18.520205,31.5142606 18.5555262,31.472544 Z" id="path-13"></path>
        <path d="M18.5555262,31.472544 L35.6907914,11.2346885 C35.9651871,10.9106094 35.994733,10.4440813 35.7634292,10.0877454 L31.5988191,3.6719433 C31.5305008,3.56669534 31.4328641,3.4839217 31.3180486,3.43391393 L23.5555512,0.0529664035 C23.4753345,0.0180280835 23.3888212,0 23.3013757,0 L12.2678194,0 C12.1771508,0 12.0875221,0.0193812278 12.0048987,0.0568537183 L4.56217364,3.43238211 C4.4496422,3.48341892 4.354274,3.56611263 4.28762437,3.67044358 L0.183505495,10.094884 C-0.0421628332,10.4481371 -0.0133854874,10.9074849 0.254592852,11.2295898 L17.0906276,31.4661858 C17.4296091,31.8736352 18.0335312,31.9281544 18.4395254,31.5879579 C18.481397,31.5528723 18.520205,31.5142606 18.5555262,31.472544 Z" id="path-15"></path>
        <path d="M18.5555262,31.472544 L35.6907914,11.2346885 C35.9651871,10.9106094 35.994733,10.4440813 35.7634292,10.0877454 L31.5988191,3.6719433 C31.5305008,3.56669534 31.4328641,3.4839217 31.3180486,3.43391393 L23.5555512,0.0529664035 C23.4753345,0.0180280835 23.3888212,0 23.3013757,0 L12.2678194,0 C12.1771508,0 12.0875221,0.0193812278 12.0048987,0.0568537183 L4.56217364,3.43238211 C4.4496422,3.48341892 4.354274,3.56611263 4.28762437,3.67044358 L0.183505495,10.094884 C-0.0421628332,10.4481371 -0.0133854874,10.9074849 0.254592852,11.2295898 L17.0906276,31.4661858 C17.4296091,31.8736352 18.0335312,31.9281544 18.4395254,31.5879579 C18.481397,31.5528723 18.520205,31.5142606 18.5555262,31.472544 Z" id="path-17"></path>
    </defs>
    <g id="页面-1" stroke="none" stroke-width="1" fill="none" fill-rule="evenodd">
        <g id="web" transform="translate(-174.000000, -16.000000)">
            <g id="编组-2" transform="translate(174.000000, 16.000000)">
                <path d="M55.0820312,25 L55.0820312,10.7265625 L60.1679688,10.7265625 L60.1679688,7.8203125 L46.515625,7.8203125 L46.515625,10.7265625 L51.6132812,10.7265625 L51.6132812,25 L55.0820312,25 Z M68.7389626,25.2929688 C71.2624001,25.2929688 73.2780251,24.5097656 74.7858376,22.9433594 C76.2936501,21.3769531 77.0475563,19.2070312 77.0475563,16.4335938 C77.0475563,13.6367188 76.2877907,11.453125 74.7682594,9.8828125 C73.2487282,8.3125 71.2233376,7.52734375 68.6920876,7.52734375 C67.2936501,7.52734375 66.0592751,7.75390625 64.9889626,8.20703125 C64.1842751,8.54296875 63.4440407,9.05859375 62.7682594,9.75390625 C62.0924782,10.4492188 61.5592751,11.234375 61.1686501,12.109375 C60.6452126,13.296875 60.3834938,14.765625 60.3834938,16.515625 C60.3834938,19.25 61.1374001,21.3964844 62.6452126,22.9550781 C64.1530251,24.5136719 66.1842751,25.2929688 68.7389626,25.2929688 Z M68.7272438,22.328125 C67.3444313,22.328125 66.2038063,21.8261719 65.3053688,20.8222656 C64.4069313,19.8183594 63.9577126,18.34375 63.9577126,16.3984375 C63.9577126,14.421875 64.3952126,12.9433594 65.2702126,11.9628906 C66.1452126,10.9824219 67.2975563,10.4921875 68.7272438,10.4921875 C70.1569313,10.4921875 71.3034157,10.9765625 72.1666969,11.9453125 C73.0299782,12.9140625 73.4616188,14.3828125 73.4616188,16.3515625 C73.4616188,18.34375 73.0182594,19.8378906 72.1315407,20.8339844 C71.2448219,21.8300781 70.1100563,22.328125 68.7272438,22.328125 Z M82.1263626,25 L82.1263626,13.796875 L89.0521439,25 L92.5326126,25 L92.5326126,7.8203125 L89.3099564,7.8203125 L89.3099564,19.2929688 L82.2787064,7.8203125 L78.9037064,7.8203125 L78.9037064,25 L82.1263626,25 Z M108.315225,25.2929688 C110.158975,25.2929688 111.68046,24.8378906 112.879678,23.9277344 C114.078897,23.0175781 114.936319,21.625 115.451944,19.75 L115.451944,19.75 L112.088663,18.6835938 C111.7996,19.9414062 111.323038,20.8632812 110.658975,21.4492188 C109.994913,22.0351562 109.201944,22.328125 108.280069,22.328125 C107.030069,22.328125 106.014444,21.8671875 105.233194,20.9453125 C104.451944,20.0234375 104.061319,18.4765625 104.061319,16.3046875 C104.061319,14.2578125 104.457803,12.7773438 105.250772,11.8632812 C106.043741,10.9492188 107.076944,10.4921875 108.350382,10.4921875 C109.272257,10.4921875 110.05546,10.75 110.699991,11.265625 C111.344522,11.78125 111.76835,12.484375 111.971475,13.375 L111.971475,13.375 L115.405069,12.5546875 C115.014444,11.1796875 114.428507,10.125 113.647257,9.390625 C112.334757,8.1484375 110.627725,7.52734375 108.526163,7.52734375 C106.119913,7.52734375 104.178507,8.31835938 102.701944,9.90039062 C101.225382,11.4824219 100.4871,13.703125 100.4871,16.5625 C100.4871,19.265625 101.221475,21.3964844 102.690225,22.9550781 C104.158975,24.5136719 106.033975,25.2929688 108.315225,25.2929688 Z M123.190907,25.28125 C125.034657,25.28125 126.563953,24.6621094 127.778797,23.4238281 C128.993641,22.1855469 129.601063,20.625 129.601063,18.7421875 C129.601063,16.875 128.9995,15.3300781 127.796375,14.1074219 C126.59325,12.8847656 125.050282,12.2734375 123.167469,12.2734375 C121.948719,12.2734375 120.845203,12.5429688 119.856922,13.0820312 C118.868641,13.6210938 118.104969,14.4023438 117.565907,15.4257812 C117.026844,16.4492188 116.757313,17.5078125 116.757313,18.6015625 C116.757313,20.03125 117.026844,21.2441406 117.565907,22.2402344 C118.104969,23.2363281 118.892078,23.9921875 119.927235,24.5078125 C120.962391,25.0234375 122.050282,25.28125 123.190907,25.28125 Z M123.179188,22.5976562 C122.319813,22.5976562 121.597157,22.2695312 121.011219,21.6132812 C120.425282,20.9570312 120.132313,20.0117188 120.132313,18.7773438 C120.132313,17.5429688 120.425282,16.5976562 121.011219,15.9414062 C121.597157,15.2851562 122.319813,14.9570312 123.179188,14.9570312 C124.038563,14.9570312 124.759266,15.2851562 125.341297,15.9414062 C125.923328,16.5976562 126.214344,17.5351562 126.214344,18.7539062 C126.214344,20.0039062 125.923328,20.9570312 125.341297,21.6132812 C124.759266,22.2695312 124.038563,22.5976562 123.179188,22.5976562 Z M134.340025,25 L134.340025,18.953125 C134.340025,17.7578125 134.427916,16.9023438 134.603697,16.3867188 C134.779479,15.8710938 135.070494,15.4765625 135.476744,15.203125 C135.882994,14.9296875 136.340025,14.7929688 136.847838,14.7929688 C137.269713,14.7929688 137.603697,14.8789062 137.849791,15.0507812 C138.095885,15.2226562 138.277525,15.484375 138.394713,15.8359375 C138.5119,16.1875 138.570494,16.96875 138.570494,18.1796875 L138.570494,18.1796875 L138.570494,25 L141.863463,25 L141.863463,19.0234375 C141.863463,17.8515625 141.953307,16.9941406 142.132994,16.4511719 C142.312682,15.9082031 142.60565,15.4960938 143.0119,15.2148438 C143.41815,14.9335938 143.851744,14.7929688 144.312682,14.7929688 C144.945494,14.7929688 145.414244,15.0273438 145.718932,15.4960938 C145.945494,15.8554688 146.058775,16.6523438 146.058775,17.8867188 L146.058775,17.8867188 L146.058775,25 L149.351744,25 L149.351744,17.0429688 C149.351744,15.8554688 149.238463,14.9960938 149.0119,14.4648438 C148.6994,13.7460938 148.226744,13.2011719 147.593932,12.8300781 C146.961119,12.4589844 146.187682,12.2734375 145.273619,12.2734375 C144.554869,12.2734375 143.879088,12.4375 143.246275,12.765625 C142.613463,13.09375 142.023619,13.5898438 141.476744,14.2539062 C141.101744,13.5898438 140.621275,13.09375 140.035338,12.765625 C139.4494,12.4375 138.757994,12.2734375 137.961119,12.2734375 C136.461119,12.2734375 135.16815,12.9335938 134.082213,14.2539062 L134.082213,14.2539062 L134.082213,12.5546875 L131.047057,12.5546875 L131.047057,25 L134.340025,25 Z M154.793832,25 L154.793832,18.953125 C154.793832,17.7578125 154.881722,16.9023438 155.057504,16.3867188 C155.233285,15.8710938 155.5243,15.4765625 155.93055,15.203125 C156.3368,14.9296875 156.793832,14.7929688 157.301644,14.7929688 C157.723519,14.7929688 158.057504,14.8789062 158.303597,15.0507812 C158.549691,15.2226562 158.731332,15.484375 158.848519,15.8359375 C158.965707,16.1875 159.0243,16.96875 159.0243,18.1796875 L159.0243,18.1796875 L159.0243,25 L162.317269,25 L162.317269,19.0234375 C162.317269,17.8515625 162.407113,16.9941406 162.5868,16.4511719 C162.766488,15.9082031 163.059457,15.4960938 163.465707,15.2148438 C163.871957,14.9335938 164.30555,14.7929688 164.766488,14.7929688 C165.3993,14.7929688 165.86805,15.0273438 166.172738,15.4960938 C166.3993,15.8554688 166.512582,16.6523438 166.512582,17.8867188 L166.512582,17.8867188 L166.512582,25 L169.80555,25 L169.80555,17.0429688 C169.80555,15.8554688 169.692269,14.9960938 169.465707,14.4648438 C169.153207,13.7460938 168.68055,13.2011719 168.047738,12.8300781 C167.414925,12.4589844 166.641488,12.2734375 165.727425,12.2734375 C165.008675,12.2734375 164.332894,12.4375 163.700082,12.765625 C163.067269,13.09375 162.477425,13.5898438 161.93055,14.2539062 C161.55555,13.5898438 161.075082,13.09375 160.489144,12.765625 C159.903207,12.4375 159.2118,12.2734375 158.414925,12.2734375 C156.914925,12.2734375 155.621957,12.9335938 154.536019,14.2539062 L154.536019,14.2539062 L154.536019,12.5546875 L151.500863,12.5546875 L151.500863,25 L154.793832,25 Z M176.267169,25.28125 C177.087482,25.28125 177.866779,25.0898438 178.60506,24.7070312 C179.343341,24.3242188 179.939044,23.8007812 180.392169,23.1367188 L180.392169,23.1367188 L180.392169,25 L183.450763,25 L183.450763,12.5546875 L180.157794,12.5546875 L180.157794,17.8046875 C180.157794,19.5859375 180.075763,20.7050781 179.911701,21.1621094 C179.747638,21.6191406 179.442951,22.0019531 178.997638,22.3105469 C178.552326,22.6191406 178.048419,22.7734375 177.485919,22.7734375 C176.993732,22.7734375 176.587482,22.6582031 176.267169,22.4277344 C175.946857,22.1972656 175.726154,21.8847656 175.60506,21.4902344 C175.483966,21.0957031 175.423419,20.0234375 175.423419,18.2734375 L175.423419,18.2734375 L175.423419,12.5546875 L172.130451,12.5546875 L172.130451,20.4296875 C172.130451,21.6015625 172.278888,22.5195312 172.575763,23.1835938 C172.872638,23.8476562 173.353107,24.3632812 174.017169,24.7304688 C174.681232,25.0976562 175.431232,25.28125 176.267169,25.28125 Z M189.244413,25 L189.244413,19.3632812 C189.244413,17.9726562 189.328397,17.0195312 189.496366,16.5039062 C189.664335,15.9882812 189.974882,15.5742188 190.428007,15.2617188 C190.881132,14.9492188 191.392851,14.7929688 191.963163,14.7929688 C192.408476,14.7929688 192.789335,14.9023438 193.105741,15.1210938 C193.422147,15.3398438 193.650663,15.6464844 193.791288,16.0410156 C193.931913,16.4355469 194.002226,17.3046875 194.002226,18.6484375 L194.002226,18.6484375 L194.002226,25 L197.295194,25 L197.295194,17.265625 C197.295194,16.3046875 197.234647,15.5664062 197.113554,15.0507812 C196.99246,14.5351562 196.777616,14.0742188 196.469022,13.6679688 C196.160429,13.2617188 195.705351,12.9277344 195.103788,12.6660156 C194.502226,12.4042969 193.838163,12.2734375 193.111601,12.2734375 C191.463163,12.2734375 190.095976,12.9765625 189.010038,14.3828125 L189.010038,14.3828125 L189.010038,12.5546875 L185.951444,12.5546875 L185.951444,25 L189.244413,25 Z M203.041969,10.8671875 L203.041969,7.8203125 L199.749001,7.8203125 L199.749001,10.8671875 L203.041969,10.8671875 Z M203.041969,25 L203.041969,12.5546875 L199.749001,12.5546875 L199.749001,25 L203.041969,25 Z M208.905932,25.28125 C209.874682,25.28125 210.741869,25.1171875 211.507494,24.7890625 L211.507494,24.7890625 L211.226244,22.234375 C210.648119,22.4453125 210.206713,22.5507812 209.902026,22.5507812 C209.683276,22.5507812 209.497729,22.4960938 209.345385,22.3867188 C209.193041,22.2773438 209.095385,22.1386719 209.052416,21.9707031 C209.009448,21.8027344 208.987963,21.2109375 208.987963,20.1953125 L208.987963,20.1953125 L208.987963,15.1796875 L211.237963,15.1796875 L211.237963,12.5546875 L208.987963,12.5546875 L208.987963,8.16015625 L205.683276,10.0820312 L205.683276,12.5546875 L204.171557,12.5546875 L204.171557,15.1796875 L205.683276,15.1796875 L205.6839,20.8671644 C205.688892,21.8862102 205.723841,22.5724159 205.788744,22.9257812 C205.874682,23.4648438 206.028979,23.8925781 206.251635,24.2089844 C206.474291,24.5253906 206.823901,24.7832031 207.300463,24.9824219 C207.777026,25.1816406 208.312182,25.28125 208.905932,25.28125 Z M214.031613,30.0507812 C214.656613,30.0507812 215.21716,29.984375 215.713254,29.8515625 C216.209348,29.71875 216.627316,29.5332031 216.96716,29.2949219 C217.307004,29.0566406 217.607785,28.7460938 217.869504,28.3632812 C218.131223,27.9804688 218.406613,27.4257812 218.695676,26.6992188 L218.695676,26.6992188 L219.480832,24.53125 L223.875363,12.5546875 L220.465207,12.5546875 L217.558957,21.390625 L214.582395,12.5546875 L211.078488,12.5546875 L215.812863,25.0351562 C215.617551,25.7304688 215.336301,26.3027344 214.969113,26.7519531 C214.601926,27.2011719 214.03552,27.4257812 213.269895,27.4257812 C212.855832,27.4257812 212.390988,27.375 211.875363,27.2734375 L211.875363,27.2734375 L212.168332,29.8515625 C212.777707,29.984375 213.398801,30.0507812 214.031613,30.0507812 Z" id="TONCommunity" fill="#080808" fill-rule="nonzero"></path>
                <g id="编组">
                    <g id="f-link" fill="#47A9F1" fill-rule="nonzero">
                        <path d="M18.5555262,31.472544 L35.6907914,11.2346885 C35.9651871,10.9106094 35.994733,10.4440813 35.7634292,10.0877454 L31.5988191,3.6719433 C31.5305008,3.56669534 31.4328641,3.4839217 31.3180486,3.43391393 L23.5555512,0.0529664035 C23.4753345,0.0180280835 23.3888212,0 23.3013757,0 L12.2678194,0 C12.1771508,0 12.0875221,0.0193812278 12.0048987,0.0568537183 L4.56217364,3.43238211 C4.4496422,3.48341892 4.354274,3.56611263 4.28762437,3.67044358 L0.183505495,10.094884 C-0.0421628332,10.4481371 -0.0133854874,10.9074849 0.254592852,11.2295898 L17.0906276,31.4661858 C17.4296091,31.8736352 18.0335312,31.9281544 18.4395254,31.5879579 C18.481397,31.5528723 18.520205,31.5142606 18.5555262,31.472544 Z" id="f"></path>
                    </g>
                    <g id="Clipped">
                        <mask id="mask-2" fill="white">
                            <use xlink:href="#path-1"></use>
                        </mask>
                        <g id="f"></g>
                        <path d="M17.901679,32.0971632 L20.2998515,29.4306697 L24.7458423,15.5921466 L11.0073363,15.6744049 L15.3736624,29.3500086 L17.6762805,32.093295 C17.7294934,32.1566916 17.8238407,32.1647926 17.8870109,32.1113889 C17.8922172,32.1069875 17.897118,32.1022346 17.901679,32.0971632 L17.901679,32.0971632 Z" id="路径" fill="#8DCCFC" fill-rule="nonzero" mask="url(#mask-2)"></path>
                    </g>
                    <g id="Clipped">
                        <mask id="mask-4" fill="white">
                            <use xlink:href="#path-3"></use>
                        </mask>
                        <g id="f"></g>
                        <polygon id="路径" fill="#BFE2F7" fill-rule="nonzero" mask="url(#mask-4)" points="11.0137522 15.8372978 17.8904639 6.58965819 5.72473597 4.9359369"></polygon>
                    </g>
                    <g id="Clipped">
                        <mask id="mask-6" fill="white">
                            <use xlink:href="#path-5"></use>
                        </mask>
                        <g id="f"></g>
                        <polygon id="路径" fill="#75C1FF" fill-rule="nonzero" mask="url(#mask-6)" points="24.6604914 15.668099 17.7685137 6.70788177 11.032773 15.8329679"></polygon>
                    </g>
                    <g id="Clipped">
                        <mask id="mask-8" fill="white">
                            <use xlink:href="#path-7"></use>
                        </mask>
                        <g id="f"></g>
                        <polygon id="路径" fill="#4BAEF7" fill-rule="nonzero" mask="url(#mask-8)" transform="translate(23.914186, 10.364592) scale(-1, 1) translate(-23.914186, -10.364592) " points="23.0779755 15.828692 29.9731516 6.77728643 17.8552197 4.9004927"></polygon>
                    </g>
                    <g id="Clipped">
                        <mask id="mask-10" fill="white">
                            <use xlink:href="#path-9"></use>
                        </mask>
                        <g id="f"></g>
                        <polygon id="路径" fill="#6EBEFF" fill-rule="nonzero" mask="url(#mask-10)" transform="translate(30.578956, 10.410280) rotate(2.000000) translate(-30.578956, -10.410280) " points="24.9625292 15.8674341 36.1953821 10.5972357 29.7905383 4.95312685"></polygon>
                    </g>
                    <g id="Clipped">
                        <mask id="mask-12" fill="white">
                            <use xlink:href="#path-11"></use>
                        </mask>
                        <g id="f"></g>
                        <polygon id="路径" fill="#87CBFF" fill-rule="nonzero" mask="url(#mask-12)" transform="translate(5.268990, 10.405212) scale(-1, 1) rotate(2.000000) translate(-5.268990, -10.405212) " points="-0.202206744 15.8623655 10.7401874 10.4975181 4.62580232 4.94805818"></polygon>
                    </g>
                    <g id="Clipped">
                        <mask id="mask-14" fill="white">
                            <use xlink:href="#path-13"></use>
                        </mask>
                        <g id="f"></g>
                        <path d="M11.9046273,6.25538874 L10.3855804,6.25463842 L11.9046273,6.25538874 Z" id="路径" fill="#FFFFFF" fill-rule="nonzero" mask="url(#mask-14)" transform="translate(11.145104, 6.255014) rotate(8.000000) translate(-11.145104, -6.255014) "></path>
                    </g>
                    <g id="Clipped">
                        <mask id="mask-16" fill="white">
                            <use xlink:href="#path-15"></use>
                        </mask>
                        <g id="f"></g>
                        <polygon id="路径" fill="#389BE3" fill-rule="nonzero" mask="url(#mask-16)" points="29.9731513 4.9359369 31.4288385 3.58468042 36.453427 11.3020767"></polygon>
                    </g>
                    <g id="Clipped">
                        <mask id="mask-18" fill="white">
                            <use xlink:href="#path-17"></use>
                        </mask>
                        <g id="f"></g>
                        <polygon id="路径" fill="#7EC7FF" fill-rule="nonzero" mask="url(#mask-18)" points="4.4638896 3.51641746 5.77348268 4.96160845 17.763272 6.79741523 30.0194169 4.92455976 31.4539416 3.53042014 23.4339428 0 12.1302559 0"></polygon>
                    </g>
                </g>
            </g>
        </g>
    </g>
</svg>
